<svg width="177" height="24" viewBox="0 0 177 24" class="brand-svg" role="img" aria-labelledby="title" xmlns="http://www.w3.org/2000/svg" preserveAspectRatio="xMidYMid meet">
  <title id="title">ZeroKeyUSB</title>
  <!-- Escalado proporcional y centrado horizontal -->
  <g transform="translate(50.97260370947189,0) scale(0.08494973807164095) translate(-61.64,-370.71)">
    <path fill="#000000" opacity="1.000000" stroke="none" d=" M61.648899,539.999878  	C61.648800,509.005127 61.639950,478.510406 61.656120,448.015656  	C61.659912,440.868286 62.915443,439.649109 70.158791,439.659271  	C95.653763,439.695129 121.148712,439.779633 146.643661,439.775787  	C153.626511,439.774719 153.642227,439.662537 153.646896,432.891327  	C153.657364,417.727234 153.641281,402.563110 153.654419,387.399017  	C153.662048,378.599762 158.246414,372.826508 167.017868,371.669525  	C179.442108,370.030731 191.975784,370.987457 204.456573,371.010529  	C244.595657,371.084808 284.734192,371.523865 324.873199,371.563293  	C416.178680,371.652924 507.484344,371.587616 598.789917,371.587006  	C623.762207,371.586853 648.734436,371.592285 673.706726,371.595886  	C703.180664,371.600128 732.654785,371.683289 762.128418,371.592163  	C810.406738,371.442932 858.684631,371.159332 906.962891,370.991058  	C913.469360,370.968384 919.952454,371.438202 925.976929,374.319977  	C940.383423,381.211212 944.878113,393.915405 944.968384,408.484344  	C945.237000,451.806732 945.080627,495.131744 945.095764,538.455750  	C945.104919,564.617065 945.057678,590.778625 945.159851,616.939636  	C945.244873,638.689087 930.713196,653.216187 908.836731,653.212708  	C725.373474,653.183533 541.910278,653.175110 358.447021,653.174622  	C294.627594,653.174438 230.808151,653.216675 166.988708,653.231140  	C158.784576,653.233032 153.719681,648.225159 153.678024,639.834656  	C153.598572,623.837708 153.660721,607.840210 153.645569,591.842896  	C153.638779,584.663330 153.618546,584.655945 146.479370,584.654053  	C120.341347,584.647034 94.203316,584.647705 68.065292,584.639526  	C63.103748,584.638000 61.685593,583.227234 61.667080,577.992676  	C61.622879,565.495239 61.650604,552.997559 61.648899,539.999878  M317.616333,633.019348  	C335.748840,633.778259 353.888092,632.957825 372.036133,633.420776  	C393.642609,633.971924 415.281403,633.140747 436.906555,633.098877  	C485.229309,633.005371 533.552673,632.894043 581.874939,633.054138  	C614.190430,633.161255 646.503906,632.831360 678.824402,633.412964  	C705.927307,633.900757 733.051331,633.134155 760.166321,633.055786  	C785.634460,632.982239 811.103149,633.124329 836.571533,633.094299  	C860.388550,633.066223 884.205994,633.014160 908.022095,632.820496  	C920.320679,632.720520 925.646301,627.205322 925.647400,615.038513  	C925.653381,547.709717 925.650818,480.380951 925.647949,413.052185  	C925.647888,411.552612 925.702881,410.045013 925.574585,408.554718  	C924.506592,396.139893 918.956177,391.095886 906.606934,391.101593  	C806.117554,391.148102 705.628174,391.195435 605.138794,391.205353  	C464.320312,391.219208 323.501862,391.198151 182.683380,391.204010  	C175.027893,391.204315 174.340851,391.916382 174.340378,399.429138  	C174.335693,474.923981 174.335587,550.418823 174.339035,625.913696  	C174.339340,632.719849 174.521255,632.916016 181.300247,632.922546  	C208.445480,632.948608 235.590729,632.952576 262.735962,632.969849  	C280.714691,632.981262 298.693390,633.001465 317.616333,633.019348  M134.496445,564.651855  	C138.993515,564.647827 143.491531,564.584656 147.987350,564.657654  	C151.868256,564.720581 153.714569,563.234436 153.701065,559.042236  	C153.599060,527.396667 153.592346,495.750519 153.702606,464.105042  	C153.717560,459.808960 152.232880,458.235809 147.878540,458.270233  	C127.892944,458.428345 107.904709,458.430725 87.919121,458.273010  	C83.546028,458.238525 82.166092,459.792938 82.185287,464.113647  	C82.325829,495.758698 82.336174,527.404968 82.190109,559.049927  	C82.169540,563.505310 83.767517,564.784607 88.028519,564.731628  	C103.182915,564.543274 118.341011,564.654053 134.496445,564.651855  z"></path>
    <path fill="#000000" opacity="1.000000" stroke="none" d=" M205.070923,581.356873  	C205.070740,555.617737 204.963318,530.293518 205.042419,504.969910  	C205.114166,481.993286 204.722168,459.012390 205.597778,436.040680  	C205.916962,427.666321 208.862976,424.654877 217.219452,424.654266  	C381.036041,424.642517 544.852600,424.636230 708.669189,424.640656  	C719.810669,424.640961 722.338257,427.268707 722.338928,438.596008  	C722.341797,487.091644 722.340576,535.587280 722.354675,584.082947  	C722.357788,594.837036 719.087708,598.201538 708.453186,598.201538  	C555.802917,598.201172 403.152618,598.196106 250.502350,598.193115  	C241.169983,598.192932 231.837494,598.229980 222.505264,598.196777  	C210.992783,598.155884 205.729248,593.178223 205.070923,581.356873  M557.500000,437.931335  	C552.835693,437.951874 548.171326,437.986938 543.507019,437.990875  	C437.879272,438.080139 332.251556,438.163544 226.623810,438.258301  	C219.797028,438.264404 219.343704,438.739380 219.342300,445.739655  	C219.333618,489.392883 219.334381,533.046082 219.343414,576.699341  	C219.345032,584.564209 219.494995,584.685791 227.594284,584.682739  	C279.411407,584.663269 331.228546,584.649902 383.045654,584.622864  	C462.831390,584.581238 542.617126,584.546631 622.402832,584.470032  	C639.215210,584.453857 656.027405,584.213745 672.839905,584.183716  	C681.984375,584.167358 691.136658,584.648499 700.271912,584.402344  	C708.652527,584.176453 708.674622,583.879028 708.677307,575.416077  	C708.690674,533.095764 708.716858,490.775421 708.666931,448.455170  	C708.655396,438.633301 710.675415,436.693970 697.941589,437.860260  	C697.114685,437.936005 696.276428,437.894806 695.443420,437.895050  	C649.795593,437.907745 604.147827,437.919098 557.500000,437.931335  z"></path>
    <path fill="#000000" opacity="1.000000" stroke="none" d=" M801.757751,571.231445  	C803.016724,554.793945 820.462585,546.410828 834.047485,554.961121  	C842.649292,560.375122 846.028015,570.990784 842.035706,580.241455  	C837.944641,589.720947 827.077637,595.276489 817.516968,592.776245  	C806.681091,589.942566 801.984985,583.655396 801.757751,571.231445  z"></path>
    <path fill="#000000" opacity="1.000000" stroke="none" d=" M833.955200,491.794189  	C841.799500,497.414673 844.980408,505.452209 842.856812,513.658691  	C840.463867,522.906128 833.264282,529.416870 824.471069,530.285583  	C816.369019,531.086060 807.823486,526.739929 804.295349,520.024597  	C799.934875,511.725006 801.368652,502.097443 808.003967,495.122284  	C814.666138,488.118896 823.794128,486.865204 833.955200,491.794189  z"></path>
    <path fill="#000000" opacity="1.000000" stroke="none" d=" M838.808960,432.297211  	C845.752014,442.480774 844.662598,454.864044 836.519531,461.342041  	C827.427612,468.574860 814.405273,467.951111 806.647705,459.663452  	C800.622437,453.226471 800.255066,445.567108 803.486694,437.867126  	C806.592896,430.466064 812.225891,426.040558 820.634827,425.541840  	C827.616699,425.127747 833.863342,426.326965 838.808960,432.297211  z"></path>
    <path fill="#000000" opacity="1.000000" stroke="none" d=" M887.189819,529.606018  	C876.265808,531.574219 865.758545,524.925964 863.585449,515.046387  	C860.968079,503.147003 867.693115,492.248352 879.547180,489.178802  	C889.331116,486.645294 900.583618,492.815216 903.383301,502.248596  	C906.828125,513.855774 901.672668,524.734253 890.924194,528.503235  	C889.832153,528.886169 888.701477,529.158875 887.189819,529.606018  z"></path>
    <path fill="#000000" opacity="1.000000" stroke="none" d=" M741.172852,510.688965  	C740.302795,492.946381 757.556946,483.657043 772.003601,491.160004  	C780.199402,495.416504 784.022888,505.459991 781.235474,515.273926  	C778.647827,524.384766 769.405640,530.948853 760.080505,530.298828  	C750.335083,529.619568 742.846802,522.653625 741.560364,513.076660  	C741.471741,512.416565 741.345093,511.761627 741.172852,510.688965  z"></path>
    <path fill="#000000" opacity="1.000000" stroke="none" d=" M689.883667,493.753479  	C689.502380,499.475708 687.481018,504.104401 683.628479,508.468964  	C691.749268,513.945190 691.845459,522.098938 691.371216,530.391541  	C690.841919,539.645996 685.129639,545.970703 676.003906,547.240479  	C669.406677,548.158447 662.749329,548.164917 656.091309,548.048523  	C653.015442,547.994690 651.607971,546.861206 651.619873,543.593994  	C651.699036,521.811279 651.694153,500.028046 651.618469,478.245331  	C651.607483,475.077637 652.766479,473.708282 655.980774,473.750244  	C662.790344,473.839233 669.601807,473.614227 676.371399,474.694183  	C684.980713,476.067596 688.937195,481.443237 689.883667,493.753479  M665.324463,518.193359  	C665.316833,522.672852 665.373962,527.153625 665.279053,531.631287  	C665.215210,534.644836 666.596985,535.784546 669.524841,535.664185  	C673.563110,535.498169 676.572571,534.110840 677.707214,529.869141  	C679.151611,524.469177 678.044312,518.117188 674.839966,516.669128  	C671.787720,515.289795 668.329773,513.757874 665.324463,518.193359  M676.607727,491.993164  	C675.914612,487.634918 673.073364,485.793427 668.950500,485.686554  	C667.128235,485.639313 665.408630,486.601624 665.470886,488.528809  	C665.621338,493.182373 663.684021,498.087860 666.791260,502.405487  	C667.125122,502.869293 668.348083,502.783508 669.161194,502.797333  	C674.376709,502.886017 676.367676,500.204376 676.607727,491.993164  z"></path>
    <path fill="#000000" opacity="1.000000" stroke="none" d=" M335.271545,532.066956  	C335.252258,536.380188 335.186005,540.207397 335.231110,544.033386  	C335.265045,546.916016 334.072998,548.399231 331.060516,548.236816  	C329.234863,548.138428 327.401581,548.165222 325.571747,548.163818  	C322.881866,548.161743 321.676636,546.831116 321.679810,544.146729  	C321.706055,522.017639 321.713104,499.888489 321.682587,477.759430  	C321.678925,475.111481 322.665161,473.672577 325.464691,473.742493  	C331.280609,473.887787 337.164307,473.476105 342.900238,474.219177  	C355.083832,475.797516 360.087555,481.153625 361.230530,493.321594  	C361.963776,501.127472 361.007233,508.654419 355.368011,514.782654  	C353.438599,516.879395 353.368713,519.019958 354.283936,521.651794  	C356.738586,528.710388 358.772491,535.917725 361.312012,542.943542  	C362.834076,547.154419 361.367493,548.220520 357.373138,548.275696  	C349.110626,548.389832 349.111206,548.509155 346.694794,540.578735  	C345.000610,535.018616 343.321045,529.453857 341.610474,523.898804  	C341.114990,522.289612 340.584473,520.509705 338.414612,520.735901  	C336.231506,520.963440 335.348419,522.511292 335.320831,524.593018  	C335.289948,526.921936 335.287384,529.251282 335.271545,532.066956  M344.298340,487.191284  	C338.040375,484.447601 335.575409,485.027771 335.340912,489.583984  	C335.077728,494.698883 335.277527,499.838043 335.293091,504.966614  	C335.301697,507.806366 337.062714,508.831726 339.532227,508.509888  	C342.594940,508.110809 345.370453,506.889618 346.486206,503.687286  	C348.421692,498.132202 348.527069,492.693573 344.298340,487.191284  z"></path>
    <path fill="#000000" opacity="1.000000" stroke="none" d=" M426.927826,548.310181  	C419.176239,548.243774 419.136871,548.243896 419.120117,541.198669  	C419.071869,520.889587 419.032837,500.580353 419.067932,480.271301  	C419.071747,478.068512 418.196838,474.887146 420.998352,474.154877  	C424.467651,473.248138 428.302216,473.095490 431.811188,474.347260  	C433.387634,474.909637 433.103302,476.886200 433.106445,478.365875  	C433.115295,482.527588 433.023590,486.690155 433.081940,490.850830  	C433.106415,492.596130 432.651947,494.521240 434.705078,496.545624  	C438.468933,492.043488 440.658813,486.857971 443.143036,481.949890  	C447.703613,472.939789 449.433746,472.006653 460.004944,474.458466  	C461.027283,476.451996 459.584167,477.973999 458.832184,479.517517  	C455.407318,486.547577 451.965424,493.574554 448.289124,500.474518  	C446.661438,503.529510 446.598663,506.185669 447.930847,509.408844  	C452.438293,520.314453 456.661530,531.337952 460.943634,542.335754  	C461.586365,543.986511 462.744263,545.620667 461.669922,547.755981  	C458.238647,548.888672 454.577881,548.291382 450.967285,548.226807  	C448.685913,548.186035 448.160706,546.309448 447.509827,544.539368  	C445.099640,537.985046 442.608826,531.460388 440.151825,524.923218  	C439.452789,523.063354 438.889374,521.127747 436.992157,519.619080  	C433.804321,521.243042 433.107300,524.199463 433.037384,527.406494  	C432.924927,532.565186 432.806152,537.729553 432.930176,542.885742  	C433.025757,546.860474 431.595428,548.905823 426.927826,548.310181  z"></path>
    <path fill="#000000" opacity="1.000000" stroke="none" d=" M368.685791,502.021729  	C368.714325,496.875610 368.586670,492.243835 369.640930,487.630554  	C371.607819,479.023560 378.489960,473.060150 387.283386,472.669952  	C399.052124,472.147766 406.278442,476.545105 408.997498,486.096985  	C409.857513,489.118256 410.402008,492.218018 410.370087,495.436615  	C410.266144,505.927185 410.395813,516.419861 410.320557,526.910950  	C410.195129,544.391907 398.322693,553.107544 381.633118,548.048462  	C373.954010,545.720703 368.933350,537.885132 368.740936,527.496948  	C368.586761,519.172913 368.693817,510.844086 368.685791,502.021729  M396.629364,494.154480  	C395.987854,489.705017 394.298889,485.719879 389.220795,485.633484  	C385.228485,485.565582 382.612183,488.683044 382.528748,492.466431  	C382.249908,505.108856 382.257996,517.765930 382.567474,530.407349  	C382.646912,533.652649 384.796783,536.340637 388.600433,536.685547  	C392.288818,537.019958 394.496552,535.130249 395.914185,531.878601  	C396.683899,530.113098 396.673798,528.315918 396.675629,526.495911  	C396.686157,516.007996 396.669220,505.520081 396.629364,494.154480  z"></path>
    <path fill="#000000" opacity="1.000000" stroke="none" d=" M558.497192,474.537872  	C570.677124,472.391205 571.106018,472.721832 570.972351,484.481659  	C570.822876,497.631042 570.584045,510.779388 570.409180,523.928528  	C570.373718,526.591003 570.452454,529.231140 571.138977,531.859070  	C572.031982,535.277893 574.105774,537.016663 577.595520,536.822144  	C581.310608,536.615112 583.409790,534.505249 583.672729,530.807983  	C583.897095,527.653931 583.976318,524.483643 583.977234,521.320557  	C583.981018,507.492188 583.913208,493.663788 583.912842,479.835419  	C583.912720,474.056793 584.387573,473.922180 590.772644,473.620911  	C595.480896,473.398682 597.649780,474.419525 597.533447,479.852356  	C597.173706,496.656281 597.441711,513.472656 597.328735,530.283203  	C597.246887,542.472595 589.611938,549.426086 576.669128,549.365601  	C564.962402,549.310913 557.741516,542.160706 557.678345,530.283630  	C557.587952,513.289001 557.641785,496.293518 557.675354,479.298492  	C557.678223,477.820496 557.988281,476.343079 558.497192,474.537872  z"></path>
    <path fill="#000000" opacity="1.000000" stroke="none" d=" M631.625977,529.954102  	C631.299988,524.981934 628.375793,522.113464 625.043274,519.455200  	C619.447144,514.991516 613.703674,510.669403 609.674683,504.578125  	C603.503845,495.248718 604.128967,483.731323 611.690674,477.246490  	C618.625854,471.299042 626.633362,471.416534 634.670166,474.860931  	C640.957397,477.555389 643.127869,482.959930 643.312805,489.380585  	C643.379211,491.685852 643.666138,494.677765 640.117126,494.210297  	C637.156921,493.820374 632.745972,496.797974 631.558472,491.178741  	C631.388916,490.376007 631.060608,489.584015 630.679993,488.852570  	C628.829041,485.295868 625.852966,484.192596 622.319275,485.828522  	C618.975708,487.376434 618.758789,490.414673 619.941223,493.527863  	C621.153809,496.720520 623.423523,499.149139 626.027527,501.310181  	C629.359070,504.074951 632.679749,506.857117 635.912231,509.736053  	C644.302917,517.209045 646.107483,526.648743 643.295715,537.031738  	C640.858826,546.030518 632.163574,550.621460 621.394287,549.223877  	C611.629150,547.956604 606.031799,541.959961 605.634460,532.348450  	C605.572571,530.850708 605.525635,529.350403 605.394531,527.857971  	C605.213806,525.800232 606.036316,524.922058 608.162903,524.645508  	C615.088989,523.744751 616.409180,524.427856 618.197815,530.983521  	C619.206177,534.679810 621.262451,536.855225 625.246948,536.656799  	C629.210938,536.459473 631.229309,534.190491 631.625977,529.954102  z"></path>
    <path fill="#000000" opacity="1.000000" stroke="none" d=" M502.347168,542.966064  	C502.766052,547.038940 501.338440,548.520752 497.571411,548.420471  	C489.424194,548.203613 481.266937,548.258667 473.115631,548.356873  	C469.955200,548.395020 468.654938,547.213989 468.665344,543.975464  	C468.736023,522.013489 468.718201,500.051056 468.664734,478.088928  	C468.657715,475.195190 469.753876,473.759644 472.737762,473.772797  	C480.890045,473.808716 489.042816,473.802521 497.195068,473.758026  	C502.828735,473.727264 501.058868,477.940430 501.328430,480.925415  	C501.607452,484.015198 501.265869,486.735199 497.035187,486.370270  	C495.879578,486.270569 494.707275,486.366364 493.542633,486.369202  	C482.684479,486.395721 479.424408,490.822540 482.389191,501.391205  	C482.826080,502.948578 483.715179,503.607574 485.209808,503.637146  	C487.205719,503.676666 489.202393,503.686676 491.198792,503.694244  	C497.754120,503.719147 500.867310,508.642822 498.212921,514.664062  	C497.288513,516.760986 495.499603,516.245056 493.945068,516.308960  	C482.320770,516.787170 482.320038,516.768921 482.321472,528.446106  	C482.322357,535.644470 482.322327,535.646301 489.419220,535.684753  	C491.415771,535.695557 493.412384,535.687317 495.408936,535.696045  	C502.297577,535.726135 502.297577,535.727539 502.347168,542.966064  z"></path>
    <path fill="#000000" opacity="1.000000" stroke="none" d=" M301.951111,473.803589  	C304.108582,473.800598 305.788025,473.933960 307.439148,473.774475  	C311.862152,473.347290 313.298187,475.458496 313.266724,479.657104  	C313.218750,486.049591 313.067017,486.383057 306.594330,486.383728  	C306.427673,486.383759 306.261047,486.381073 306.094391,486.380737  	C294.561737,486.357605 293.828064,487.237701 294.309326,499.027832  	C294.437317,502.163177 295.561920,503.702942 298.728455,503.644470  	C300.227478,503.616791 301.744507,503.816162 303.224609,503.652405  	C308.101837,503.112732 309.391144,505.350800 309.506195,510.022339  	C309.631561,515.111938 308.019867,516.696472 302.968811,516.504395  	C294.784943,516.193176 294.371429,516.906921 294.362030,525.308655  	C294.350494,535.615173 294.350494,535.615173 304.679871,535.639282  	C305.179840,535.640442 305.679779,535.640259 306.179749,535.641846  	C312.553040,535.662842 315.822418,540.713318 313.357666,546.612183  	C312.685425,548.221069 311.387299,548.262207 310.073792,548.262329  	C301.908356,548.263306 293.742737,548.168579 285.577606,548.203491  	C281.611633,548.220459 281.735718,545.621704 281.610565,542.785156  	C280.772644,523.796570 281.614868,504.811157 281.607910,485.824982  	C281.603485,473.671387 281.623535,473.677063 293.960907,473.815613  	C296.460297,473.843689 298.960388,473.811066 301.951111,473.803589  z"></path>
    <path fill="#000000" opacity="1.000000" stroke="none" d=" M237.516235,541.711060  	C237.263397,538.126099 237.931961,535.165039 239.206146,532.148438  	C244.772781,518.969727 250.178955,505.722260 255.526352,492.452576  	C257.578156,487.360901 256.550049,485.893280 251.082397,485.468201  	C249.757202,485.365173 248.418747,485.422974 247.086380,485.423676  	C239.784882,485.427399 238.655655,484.064056 239.742249,477.006348  	C240.086624,474.769501 241.162369,473.766418 243.340714,473.765808  	C251.668625,473.763428 259.996552,473.764618 268.324463,473.748077  	C271.007172,473.742737 272.237091,475.033081 272.272217,477.726013  	C272.328796,482.060364 272.194885,486.221863 270.383698,490.398834  	C264.756592,503.376129 259.482452,516.506592 254.090958,529.585693  	C253.531906,530.941833 253.103714,532.351868 252.666534,533.590393  	C254.172363,535.906372 256.291046,535.554749 258.229889,535.601685  	C261.059998,535.670288 263.892822,535.620544 266.724396,535.640015  	C272.655853,535.680786 275.773590,541.242371 273.020142,546.737305  	C272.367340,548.040100 271.290649,548.240173 270.136810,548.244568  	C260.476715,548.281189 250.816330,548.294678 241.156204,548.265564  	C236.549469,548.251709 237.842346,544.667847 237.516235,541.711060  z"></path>
    <path fill="#000000" opacity="1.000000" stroke="none" d=" M511.129913,473.677979  	C519.624207,473.692017 519.653809,473.682190 522.231812,481.434479  	C523.594116,485.531250 524.840637,489.666687 526.122131,493.790070  	C526.526611,495.091431 526.914551,496.501984 528.563721,496.534607  	C530.266785,496.568298 530.635620,495.058655 531.026367,493.810242  	C532.415955,489.370514 534.089294,484.979919 534.996643,480.439148  	C536.074158,475.047241 538.775818,472.691498 544.278259,473.632446  	C546.047791,473.935059 547.945740,473.345642 549.634460,474.320831  	C550.858154,476.198822 549.766357,477.905060 549.178101,479.549164  	C545.312561,490.352753 541.665222,501.249176 537.342102,511.869202  	C534.428467,519.026794 535.674500,526.292603 535.324341,533.532715  	C535.211853,535.858093 535.321960,538.194031 535.321045,540.525146  	C535.317810,548.320923 535.305664,548.041077 527.706360,548.327393  	C522.685303,548.516663 521.127197,546.440186 521.664490,541.861450  	C523.684875,524.646362 519.383179,508.652710 512.482422,493.080444  	C509.876404,487.199738 507.948334,481.018646 505.779541,475.159058  	C507.314941,473.169678 509.108521,473.889038 511.129913,473.677979  z"></path>
  </g>
</svg>

