<svg width="177" height="24" viewBox="0 0 177 24" class="brand-svg" role="img" aria-labelledby="title" xmlns="http://www.w3.org/2000/svg" preserveAspectRatio="xMidYMid meet">
  <title id="title">ZeroKeyUSB</title>
  <!-- Escalado proporcional y centrado horizontal -->
  <g transform="translate(50.97260370947189,0) scale(0.08494973807164095) translate(-61.64,-370.71)">
    <path fill="#000000" opacity="1.000000" stroke="none" d=" M61.648899,539.999878  	C61.648800,509.005127 61.639950,478.510406 61.656120,448.015656  	C61.659912,440.868286 62.915443,439.649109 70.158791,439.659271  	C95.653763,439.695129 121.148712,439.779633 146.643661,439.775787  	C153.626511,439.774719 153.642227,439.662537 153.646896,432.891327  	C153.657364,417.727234 153.641281,402.563110 153.654419,387.399017  	C153.662048,378.599762 158.246414,372.826508 167.017868,371.669525  	C179.442108,370.030731 191.975784,370.987457 204.456573,371.010529  	C244.595657,371.084808 284.734192,371.523865 324.873199,371.563293  	C416.178680,371.652924 507.484344,371.587616 598.789917,371.587006  	C623.762207,371.586853 648.734436,371.592285 673.706726,371.595886  	C703.180664,371.600128 732.654785,371.683289 762.128418,371.592163  	C810.406738,371.442932 858.684631,371.159332 906.962891,370.991058  	C913.469360,370.968384 919.952454,371.438202 925.976929,374.319977  	C940.383423,381.211212 944.878113,393.915405 944.968384,408.484344  	C945.237000,451.806732 945.080627,495.131744 945.095764,538.455750  	C945.104919,564.617065 945.057678,590.778625 945.159851,616.939636  	C945.244873,638.689087 930.713196,653.216187 908.836731,653.212708  	C725.373474,653.183533 541.910278,653.175110 358.447021,653.174622  	C294.627594,653.174438 230.808151,653.216675 166.988708,653.231140  	C158.784576,653.233032 153.719681,648.225159 153.678024,639.834656  	C153.598572,623.837708 153.660721,607.840210 153.645569,591.842896  	C153.638779,584.663330 153.618546,584.655945 146.479370,584.654053  	C120.341347,584.647034 94.203316,584.647705 68.065292,584.639526  	C63.103748,584.638000 61.685593,583.227234 61.667080,577.992676  	C61.622879,565.495239 61.650604,552.997559 61.648899,539.999878  M317.616333,633.019348  	C335.748840,633.778259 353.888092,632.957825 372.036133,633.420776  	C393.642609,633.971924 415.281403,633.140747 436.906555,633.098877  	C485.229309,633.005371 533.552673,632.894043 581.874939,633.054138  	C614.190430,633.161255 646.503906,632.831360 678.824402,633.412964  	C705.927307,633.900757 733.051331,633.134155 760.166321,633.055786  	C785.634460,632.982239 811.103149,633.124329 836.571533,633.094299  	C860.388550,633.066223 884.205994,633.014160 908.022095,632.820496  	C920.320679,632.720520 925.646301,627.205322 925.647400,615.038513  	C925.653381,547.709717 925.650818,480.380951 925.647949,413.052185  	C925.647888,411.552612 925.702881,410.045013 925.574585,408.554718  	C924.506592,396.139893 918.956177,391.095886 906.606934,391.101593  	C806.117554,391.148102 705.628174,391.195435 605.138794,391.205353  	C464.320312,391.219208 323.501862,391.198151 182.683380,391.204010  	C175.027893,391.204315 174.340851,391.916382 174.340378,399.429138  	C174.335693,474.923981 174.335587,550.418823 174.339035,625.913696  	C174.339340,632.719849 174.521255,632.916016 181.300247,632.922546  	C208.445480,632.948608 235.590729,632.952576 262.735962,632.969849  	C280.714691,632.981262 298.693390,633.001465 317.616333,633.019348  M134.496445,564.651855  	C138.993515,564.647827 143.491531,564.584656 147.987350,564.657654  	C151.868256,564.720581 153.714569,563.234436 153.701065,559.042236  	C153.599060,527.396667 153.592346,495.750519 153.702606,464.105042  	C153.717560,459.808960 152.232880,458.235809 147.878540,458.270233  	C127.892944,458.428345 107.904709,458.430725 87.919121,458.273010  	C83.546028,458.238525 82.166092,459.792938 82.185287,464.113647  	C82.325829,495.758698 82.336174,527.404968 82.190109,559.049927  	C82.169540,563.505310 83.767517,564.784607 88.028519,564.731628  	C103.182915,564.543274 118.341011,564.654053 134.496445,564.651855  z"></path>
    <path fill="#000000" opacity="1.000000" stroke="none" d=" M205.070923,581.356873  	C205.070740,555.617737 204.963318,530.293518 205.042419,504.969910  	C205.114166,481.993286 204.722168,459.012390 205.597778,436.040680  	C205.916962,427.666321 208.862976,424.654877 217.219452,424.654266  	C381.036041,424.642517 544.852600,424.636230 708.669189,424.640656  	C719.810669,424.640961 722.338257,427.268707 722.338928,438.596008  	C722.341797,487.091644 722.340576,535.587280 722.354675,584.082947  	C722.357788,594.837036 719.087708,598.201538 708.453186,598.201538  	C555.802917,598.201172 403.152618,598.196106 250.502350,598.193115  	C241.169983,598.192932 231.837494,598.229980 222.505264,598.196777  	C210.992783,598.155884 205.729248,593.178223 205.070923,581.356873  M557.500000,437.931335  	C552.835693,437.951874 548.171326,437.986938 543.507019,437.990875  	C437.879272,438.080139 332.251556,438.163544 226.623810,438.258301  	C219.797028,438.264404 219.343704,438.739380 219.342300,445.739655  	C219.333618,489.392883 219.334381,533.046082 219.343414,576.699341  	C219.345032,584.564209 219.494995,584.685791 227.594284,584.682739  	C279.411407,584.663269 331.228546,584.649902 383.045654,584.622864  	C462.831390,584.581238 542.617126,584.546631 622.402832,584.470032  	C639.215210,584.453857 656.027405,584.213745 672.839905,584.183716  	C681.984375,584.167358 691.136658,584.648499 700.271912,584.402344  	C708.652527,584.176453 708.674622,583.879028 708.677307,575.416077  	C708.690674,533.095764 708.716858,490.775421 708.666931,448.455170  	C708.655396,438.633301 710.675415,436.693970 697.941589,437.860260  	C697.114685,437.936005 696.276428,437.894806 695.443420,437.895050  	C649.795593,437.907745 604.147827,437.919098 557.500000,437.931335  z"></path>
    <path fill="#000000" opacity="1.000000" stroke="none" d=" M801.757751,571.231445  	C803.016724,554.793945 820.462585,546.410828 834.047485,554.961121  	C842.649292,560.375122 846.028015,570.990784 842.035706,580.241455  	C837.944641,589.720947 827.077637,595.276489 817.516968,592.776245  	C806.681091,589.942566 801.984985,583.655396 801.757751,571.231445  z"></path>
    <path fill="#000000" opacity="1.000000" stroke="none" d=" M833.955200,491.794189  	C841.799500,497.414673 844.980408,505.452209 842.856812,513.658691  	C840.463867,522.906128 833.264282,529.416870 824.471069,530.285583  	C816.369019,531.086060 807.823486,526.739929 804.295349,520.024597  	C799.934875,511.725006 801.368652,502.097443 808.003967,495.122284  	C814.666138,488.118896 823.794128,486.865204 833.955200,491.794189  z"></path>
    <path fill="#000000" opacity="1.000000" stroke="none" d=" M838.808960,432.297211  	C845.752014,442.480774 844.662598,454.864044 836.519531,461.342041  	C827.427612,468.574860 814.405273,467.951111 806.647705,459.663452  	C800.622437,453.226471 800.255066,445.567108 803.486694,437.867126  	C806.592896,430.466064 812.225891,426.040558 820.634827,425.541840  	C827.616699,425.127747 833.863342,426.326965 838.808960,432.297211  z"></path>
    <path fill="#000000" opacity="1.000000" stroke="none" d=" M887.189819,529.606018  	C876.265808,531.574219 865.758545,524.925964 863.585449,515.046387  	C860.968079,503.147003 867.693115,492.248352 879.547180,489.178802  	C889.331116,486.645294 900.583618,492.815216 903.383301,502.248596  	C906.828125,513.855774 901.672668,524.734253 890.924194,528.503235  	C889.832153,528.886169 888.701477,529.158875 887.189819,529.606018  z"></path>
    <path fill="#000000" opacity="1.000000" stroke="none" d=" M741.172852,510.688965  	C740.302795,492.946381 757.556946,483.657043 772.003601,491.160004  	C780.199402,495.416504 784.022888,505.459991 781.235474,515.273926  	C778.647827,524.384766 769.405640,530.948853 760.080505,530.298828  	C750.335083,529.619568 742.846802,522.653625 741.560364,513.076660  	C741.471741,512.416565 741.345093,511.761627 741.172852,510.688965  z"></path>

  <text
    x="50%"
    y="50%"
    text-anchor="middle"
    dominant-baseline="central"
    font-family="Inter, system-ui, -apple-system, Segoe UI, Roboto, Arial, sans-serif"
    font-weight="700"
    font-size="14"
    fill="#000">
    ZeroKeyUSB
  </text>


  </g>
</svg>

